<svg width="320" height="132" viewBox="0 0 320 132" fill="none" xmlns="http://www.w3.org/2000/svg">
<g clip-path="url(#clip0_304_2)">
<path d="M90.0297 92.2C85.363 92.2 80.8964 90.0667 76.6297 85.8H76.3297L75.3297 91H66.2297V20.4H77.7297V38.6L77.4297 46.8C79.4964 45 81.763 43.5333 84.2297 42.4C86.6964 41.2667 89.163 40.7 91.6297 40.7C97.763 40.7 102.53 42.9667 105.93 47.5C109.33 52.0333 111.03 58.0667 111.03 65.6C111.03 71.2 110.03 76 108.03 80C106.03 83.9333 103.43 86.9667 100.23 89.1C97.0964 91.1667 93.6964 92.2 90.0297 92.2ZM87.6297 82.7C90.8964 82.7 93.6297 81.2667 95.8297 78.4C98.0297 75.5333 99.1297 71.3333 99.1297 65.8C99.1297 60.8667 98.2964 57.0333 96.6297 54.3C94.963 51.5667 92.263 50.2 88.5297 50.2C85.063 50.2 81.463 52.0333 77.7297 55.7V78.6C79.463 80.0667 81.163 81.1333 82.8297 81.8C84.563 82.4 86.163 82.7 87.6297 82.7ZM129.777 92.2C125.711 92.2 122.811 90.9667 121.077 88.5C119.411 86.0333 118.577 82.6667 118.577 78.4V20.4H130.077V79C130.077 80.4 130.344 81.4 130.877 82C131.411 82.5333 131.977 82.8 132.577 82.8C132.844 82.8 133.077 82.8 133.277 82.8C133.544 82.7333 133.911 82.6667 134.377 82.6L135.877 91.2C135.211 91.4667 134.344 91.7 133.277 91.9C132.277 92.1 131.111 92.2 129.777 92.2ZM145.026 111.2C143.692 111.2 142.526 111.1 141.526 110.9C140.526 110.7 139.559 110.467 138.626 110.2L140.726 101.2C141.192 101.333 141.726 101.467 142.326 101.6C142.992 101.8 143.626 101.9 144.226 101.9C146.826 101.9 148.892 101.1 150.426 99.5C152.026 97.9667 153.226 95.9667 154.026 93.5L154.926 90.4L135.626 41.9H147.326L155.826 66C156.559 68.1333 157.259 70.4 157.926 72.8C158.659 75.1333 159.392 77.4667 160.126 79.8H160.526C161.126 77.5333 161.726 75.2333 162.326 72.9C162.992 70.5 163.626 68.2 164.226 66L171.626 41.9H182.726L164.926 93.2C162.859 98.7333 160.359 103.1 157.426 106.3C154.492 109.567 150.359 111.2 145.026 111.2ZM200.938 92.2C197.604 92.2 194.271 91.5667 190.938 90.3C187.604 88.9667 184.738 87.3333 182.338 85.4L187.738 78C189.938 79.6667 192.138 81 194.338 82C196.538 83 198.871 83.5 201.338 83.5C204.004 83.5 205.971 82.9333 207.238 81.8C208.504 80.6667 209.138 79.2667 209.138 77.6C209.138 76.2 208.604 75.0667 207.538 74.2C206.538 73.2667 205.238 72.4667 203.638 71.8C202.038 71.0667 200.371 70.3667 198.638 69.7C196.504 68.9 194.371 67.9333 192.238 66.8C190.171 65.6 188.471 64.1 187.138 62.3C185.804 60.4333 185.138 58.1333 185.138 55.4C185.138 51.0667 186.738 47.5333 189.938 44.8C193.138 42.0667 197.471 40.7 202.938 40.7C206.404 40.7 209.504 41.3 212.238 42.5C214.971 43.7 217.338 45.0667 219.338 46.6L214.038 53.6C212.304 52.3333 210.538 51.3333 208.738 50.6C207.004 49.8 205.171 49.4 203.238 49.4C200.771 49.4 198.938 49.9333 197.738 51C196.538 52 195.938 53.2667 195.938 54.8C195.938 56.7333 196.938 58.2 198.938 59.2C200.938 60.2 203.271 61.1667 205.938 62.1C208.204 62.9 210.404 63.9 212.538 65.1C214.671 66.2333 216.438 67.7333 217.838 69.6C219.304 71.4667 220.038 73.9333 220.038 77C220.038 81.2 218.404 84.8 215.138 87.8C211.871 90.7333 207.138 92.2 200.938 92.2ZM240.004 92.2C236.671 92.2 233.337 91.5667 230.004 90.3C226.671 88.9667 223.804 87.3333 221.404 85.4L226.804 78C229.004 79.6667 231.204 81 233.404 82C235.604 83 237.937 83.5 240.404 83.5C243.071 83.5 245.037 82.9333 246.304 81.8C247.571 80.6667 248.204 79.2667 248.204 77.6C248.204 76.2 247.671 75.0667 246.604 74.2C245.604 73.2667 244.304 72.4667 242.704 71.8C241.104 71.0667 239.437 70.3667 237.704 69.7C235.571 68.9 233.437 67.9333 231.304 66.8C229.237 65.6 227.537 64.1 226.204 62.3C224.871 60.4333 224.204 58.1333 224.204 55.4C224.204 51.0667 225.804 47.5333 229.004 44.8C232.204 42.0667 236.537 40.7 242.004 40.7C245.471 40.7 248.571 41.3 251.304 42.5C254.037 43.7 256.404 45.0667 258.404 46.6L253.104 53.6C251.371 52.3333 249.604 51.3333 247.804 50.6C246.071 49.8 244.237 49.4 242.304 49.4C239.837 49.4 238.004 49.9333 236.804 51C235.604 52 235.004 53.2667 235.004 54.8C235.004 56.7333 236.004 58.2 238.004 59.2C240.004 60.2 242.337 61.1667 245.004 62.1C247.271 62.9 249.471 63.9 251.604 65.1C253.737 66.2333 255.504 67.7333 256.904 69.6C258.371 71.4667 259.104 73.9333 259.104 77C259.104 81.2 257.471 84.8 254.204 87.8C250.937 90.7333 246.204 92.2 240.004 92.2Z" fill="#F68E9D"/>
</g>
<defs>
<clipPath id="clip0_304_2">
<rect width="320" height="132" fill="white"/>
</clipPath>
</defs>
</svg>
